<svg width="113" height="114" xmlns="http://www.w3.org/2000/svg" xmlns:xlink="http://www.w3.org/1999/xlink" xml:space="preserve" overflow="hidden"><defs><clipPath id="clip0"><rect x="1126" y="335" width="113" height="114"/></clipPath></defs><g clip-path="url(#clip0)" transform="translate(-1126 -335)"><path d="M700.365 298.979C700.365 302.88 697.203 306.042 693.302 306.042 689.401 306.042 686.24 302.88 686.24 298.979 686.24 295.078 689.401 291.917 693.302 291.917 697.203 291.917 700.365 295.078 700.365 298.979Z" fill="#A2A1A1" transform="matrix(1 0 0 1.00885 456.24 84.4375)"/><path d="M701.542 306.042 715.667 306.042 715.667 294.271 713.312 294.271C706.839 294.271 701.542 299.568 701.542 306.042Z" fill="#A2A1A1" transform="matrix(1 0 0 1.00885 456.24 84.4375)"/><path d="M773.344 294.271 719.198 294.271 719.198 322.521C719.198 325.11 721.317 327.229 723.906 327.229L770.99 327.229 770.99 333.115 778.052 333.115 778.052 298.979C778.052 296.39 775.933 294.271 773.344 294.271Z" fill="#A2A1A1" transform="matrix(1 0 0 1.00885 456.24 84.4375)"/><path d="M681.531 280.146C681.531 278.145 680.001 276.615 678 276.615 675.999 276.615 674.469 278.145 674.469 280.146L674.469 333.115 681.531 333.115 681.531 321.344 715.667 321.344 715.667 309.573 681.531 309.573 681.531 280.146Z" fill="#A2A1A1" transform="matrix(1 0 0 1.00885 456.24 84.4375)"/></g></svg>