<svg width="114" height="114" xmlns="http://www.w3.org/2000/svg" xmlns:xlink="http://www.w3.org/1999/xlink" xml:space="preserve" overflow="hidden"><defs><clipPath id="clip0"><rect x="57" y="335" width="114" height="114"/></clipPath></defs><g clip-path="url(#clip0)" transform="translate(-57 -335)"><path d="M163.875 382.5 161.5 382.5C160.55 382.5 159.719 383.094 159.362 383.925L155.562 401.5 114 401.5 72.4375 401.5 68.6375 383.925C68.2812 383.094 67.45 382.5 66.5 382.5L64.125 382.5C62.8188 382.5 61.75 383.569 61.75 384.875L61.75 406.25C61.75 408.863 63.8875 411 66.5 411L68.875 411 68.875 415.75 76 415.75 76 411 114 411 152 411 152 415.75 159.125 415.75 159.125 411 161.5 411C164.112 411 166.25 408.863 166.25 406.25L166.25 384.875C166.25 383.569 165.181 382.5 163.875 382.5Z" fill="#A2A1A1"/><path d="M73.0312 382.144 73.2687 382.975 76.2375 396.75 151.644 396.75 154.612 382.975 154.85 382.144C155.919 379.531 158.531 377.75 161.381 377.75L161.381 374.188C161.381 371.575 159.244 369.438 156.631 369.438L71.25 369.438C68.6375 369.438 66.5 371.575 66.5 374.188L66.5 377.75C69.35 377.75 71.9625 379.413 73.0312 382.144Z" fill="#A2A1A1"/></g></svg>