<svg width="113" height="114" xmlns="http://www.w3.org/2000/svg" xmlns:xlink="http://www.w3.org/1999/xlink" xml:space="preserve" overflow="hidden"><defs><clipPath id="clip0"><rect x="210" y="335" width="113" height="114"/></clipPath></defs><g clip-path="url(#clip0)" transform="translate(-210 -335)"><path d="M753.34 137.719 753.34 130.656 675.653 130.656 675.653 135.365 675.653 135.365 675.653 160.083 675.653 160.083 675.653 227.177 753.34 227.177 753.34 151.844 753.34 151.844 753.34 137.719ZM714.497 210.698C701.82 210.698 691.544 200.422 691.544 187.745 691.544 175.068 701.82 164.792 714.497 164.792 727.174 164.792 737.45 175.068 737.45 187.745 737.45 200.422 727.174 210.698 714.497 210.698ZM746.278 151.844 682.715 151.844 682.715 137.719 746.278 137.719Z" fill="#A2A1A1" transform="matrix(1 0 0 1.00885 -447.99 211.5)"/><path d="M689.777 141.25 703.902 141.25 703.902 148.312 689.777 148.312Z" fill="#A2A1A1" transform="matrix(1 0 0 1.00885 -447.99 211.5)"/><path d="M714.497 169.5C704.421 169.5 696.252 177.669 696.252 187.745 696.252 197.821 704.421 205.99 714.497 205.99 724.572 205.99 732.741 197.821 732.741 187.745 732.731 177.672 724.568 169.511 714.497 169.5ZM728.008 188.242C726.607 189.645 724.332 189.645 722.929 188.243 722.862 188.176 722.797 188.105 722.736 188.033 721.447 186.516 719.173 186.331 717.656 187.62 717.508 187.746 717.369 187.885 717.243 188.033 715.955 189.55 713.681 189.735 712.164 188.446 712.015 188.32 711.877 188.182 711.75 188.033 710.462 186.516 708.188 186.331 706.67 187.62 706.522 187.746 706.383 187.885 706.257 188.033 704.969 189.542 702.703 189.722 701.194 188.435 701.121 188.373 701.052 188.309 700.985 188.242 700.979 188.076 700.96 187.913 700.96 187.745 700.96 180.269 707.021 174.208 714.497 174.208 721.972 174.208 728.033 180.269 728.033 187.745 728.033 187.913 728.014 188.076 728.008 188.242Z" fill="#A2A1A1" transform="matrix(1 0 0 1.00885 -447.99 211.5)"/><path d="M720.381 144.781C720.381 146.732 718.8 148.312 716.85 148.312 714.899 148.312 713.318 146.732 713.318 144.781 713.318 142.831 714.899 141.25 716.85 141.25 718.8 141.25 720.381 142.831 720.381 144.781Z" fill="#A2A1A1" transform="matrix(1 0 0 1.00885 -447.99 211.5)"/><path d="M730.975 144.781C730.975 146.732 729.394 148.312 727.443 148.312 725.493 148.312 723.912 146.732 723.912 144.781 723.912 142.831 725.493 141.25 727.443 141.25 729.394 141.25 730.975 142.831 730.975 144.781Z" fill="#A2A1A1" transform="matrix(1 0 0 1.00885 -447.99 211.5)"/><path d="M741.568 144.781C741.568 146.732 739.988 148.312 738.037 148.312 736.087 148.312 734.506 146.732 734.506 144.781 734.506 142.831 736.087 141.25 738.037 141.25 739.988 141.25 741.568 142.831 741.568 144.781Z" fill="#A2A1A1" transform="matrix(1 0 0 1.00885 -447.99 211.5)"/></g></svg>