<svg width="113" height="114" xmlns="http://www.w3.org/2000/svg" xmlns:xlink="http://www.w3.org/1999/xlink" xml:space="preserve" overflow="hidden"><defs><clipPath id="clip0"><rect x="668" y="335" width="113" height="114"/></clipPath></defs><g clip-path="url(#clip0)" transform="translate(-668 -335)"><path d="M557.996 359.01 550.934 359.01C550.96 338.414 567.651 321.723 588.247 321.697L588.247 328.759C571.548 328.778 558.015 342.311 557.996 359.01Z" fill="#A2A1A1" transform="matrix(1 0 0 1.00885 172.448 66.625)"/><path d="M539.575 359.01 532.513 359.01C532.571 328.26 557.497 303.354 588.247 303.323L588.247 310.385C561.398 310.417 539.634 332.161 539.575 359.01Z" fill="#A2A1A1" transform="matrix(1 0 0 1.00885 172.448 66.625)"/><path d="M521.154 359.01 514.091 359.01C514.137 318.074 547.311 284.9 588.247 284.854L588.247 291.917C551.209 291.956 521.193 321.972 521.154 359.01Z" fill="#A2A1A1" transform="matrix(1 0 0 1.00885 172.448 66.625)"/><path d="M588.247 349.841C588.247 354.931 584.121 359.058 579.031 359.058 573.941 359.058 569.814 354.931 569.814 349.841 569.814 344.751 573.941 340.624 579.031 340.624 584.121 340.624 588.247 344.751 588.247 349.841Z" fill="#A2A1A1" transform="matrix(1 0 0 1.00885 172.448 66.625)"/></g></svg>