<svg width="113" height="114" xmlns="http://www.w3.org/2000/svg" xmlns:xlink="http://www.w3.org/1999/xlink" xml:space="preserve" overflow="hidden"><defs><clipPath id="clip0"><rect x="499" y="347" width="113" height="114"/></clipPath></defs><g clip-path="url(#clip0)" transform="translate(-499 -347)"><path d="M482.604 197.75 482.604 143.604 576.771 143.604 576.771 197.75 482.604 197.75ZM539.104 211.875 520.271 211.875 520.271 204.812 539.104 204.812 539.104 211.875ZM583.833 204.812 583.833 136.542 475.542 136.542 475.542 204.812 513.208 204.812 513.208 211.875 492.021 211.875C490.726 211.875 489.667 212.934 489.667 214.229L489.667 216.583 569.708 216.583 569.708 214.229C569.708 212.934 568.649 211.875 567.354 211.875L546.167 211.875 546.167 204.812 583.833 204.812Z" fill="#A2A1A1" transform="matrix(1 0 0 1.00885 25.8125 225.875)"/></g></svg>