<svg width="96" height="96" xmlns="http://www.w3.org/2000/svg" xmlns:xlink="http://www.w3.org/1999/xlink" xml:space="preserve" overflow="hidden"><defs><clipPath id="clip0"><rect x="569" y="211" width="96" height="96"/></clipPath></defs><g clip-path="url(#clip0)" transform="translate(-569 -211)"><path d="M595 254C595 257.314 592.314 260 589 260 585.686 260 583 257.314 583 254 583 250.686 585.686 248 589 248 592.314 248 595 250.686 595 254Z"/><path d="M596 260 608 260 608 250 606 250C600.5 250 596 254.5 596 260Z"/><path d="M657 250 611 250 611 274C611 276.2 612.8 278 615 278L655 278 655 283 661 283 661 254C661 251.8 659.2 250 657 250Z"/><path d="M579 238C579 236.3 577.7 235 576 235 574.3 235 573 236.3 573 238L573 283 579 283 579 273 608 273 608 263 579 263 579 238Z"/></g></svg>