<svg width="96" height="96" xmlns="http://www.w3.org/2000/svg" xmlns:xlink="http://www.w3.org/1999/xlink" xml:space="preserve" overflow="hidden"><defs><clipPath id="clip0"><rect x="421" y="226" width="96" height="96"/></clipPath></defs><g clip-path="url(#clip0)" transform="translate(-421 -226)"><path d="M474.05 305 468.05 305C468.072 287.502 482.252 273.322 499.75 273.3L499.75 279.3C485.563 279.316 474.066 290.813 474.05 305Z"/><path d="M458.4 305 452.4 305C452.45 278.876 473.626 257.717 499.75 257.69L499.75 263.69C476.94 263.717 458.45 282.19 458.4 305Z"/><path d="M442.75 305 436.75 305C436.789 270.222 464.972 242.039 499.75 242L499.75 248C468.284 248.033 442.783 273.534 442.75 305Z"/><path d="M499.75 297.21C499.75 301.534 496.244 305.04 491.92 305.04 487.596 305.04 484.09 301.534 484.09 297.21 484.09 292.886 487.596 289.38 491.92 289.38 496.244 289.38 499.75 292.886 499.75 297.21Z"/></g></svg>