<svg width="96" height="96" xmlns="http://www.w3.org/2000/svg" xmlns:xlink="http://www.w3.org/1999/xlink" xml:space="preserve" overflow="hidden"><defs><clipPath id="clip0"><rect x="570" y="322" width="96" height="96"/></clipPath></defs><g clip-path="url(#clip0)" transform="translate(-570 -322)"><path d="M660 362 658 362C657.2 362 656.5 362.5 656.2 363.2L653 378 618 378 583 378 579.8 363.2C579.5 362.5 578.8 362 578 362L576 362C574.9 362 574 362.9 574 364L574 382C574 384.2 575.8 386 578 386L580 386 580 390 586 390 586 386 618 386 650 386 650 390 656 390 656 386 658 386C660.2 386 662 384.2 662 382L662 364C662 362.9 661.1 362 660 362Z"/><path d="M583.5 361.7 583.7 362.4 586.2 374 649.7 374 652.2 362.4 652.4 361.7C653.3 359.5 655.5 358 657.9 358L657.9 355C657.9 352.8 656.1 351 653.9 351L582 351C579.8 351 578 352.8 578 355L578 358C580.4 358 582.6 359.4 583.5 361.7Z"/></g></svg>