<svg width="96" height="96" xmlns="http://www.w3.org/2000/svg" xmlns:xlink="http://www.w3.org/1999/xlink" xml:space="preserve" overflow="hidden"><defs><clipPath id="clip0"><rect x="559" y="104" width="96" height="96"/></clipPath></defs><g clip-path="url(#clip0)" transform="translate(-559 -104)"><path d="M640.006 117 640.006 111 574.006 111 574.006 115 574.006 115 574.006 136 574.006 136 574.006 193 640.006 193 640.006 129 640.006 129 640.006 117ZM607.006 179C596.236 179 587.506 170.27 587.506 159.5 587.506 148.73 596.236 140 607.006 140 617.776 140 626.506 148.73 626.506 159.5 626.506 170.27 617.776 179 607.006 179ZM634.006 129 580.006 129 580.006 117 634.006 117Z"/><path d="M586.005 120 598.005 120 598.005 126 586.005 126Z"/><path d="M607.006 144C598.446 144 591.506 150.94 591.506 159.5 591.506 168.06 598.446 175 607.006 175 615.566 175 622.506 168.06 622.506 159.5 622.497 150.943 615.562 144.009 607.006 144ZM618.485 159.922C617.294 161.114 615.362 161.114 614.17 159.923 614.113 159.866 614.058 159.806 614.006 159.745 612.911 158.456 610.979 158.299 609.69 159.394 609.564 159.501 609.446 159.619 609.339 159.745 608.245 161.034 606.313 161.191 605.024 160.096 604.898 159.989 604.78 159.871 604.673 159.745 603.578 158.456 601.646 158.299 600.357 159.394 600.231 159.501 600.113 159.619 600.006 159.745 598.912 161.027 596.987 161.18 595.705 160.086 595.643 160.034 595.584 159.979 595.527 159.922 595.522 159.781 595.506 159.643 595.506 159.5 595.506 153.149 600.655 148 607.006 148 613.357 148 618.506 153.149 618.506 159.5 618.506 159.643 618.49 159.781 618.485 159.922Z"/><path d="M612.005 123C612.005 124.657 610.662 126 609.005 126 607.348 126 606.005 124.657 606.005 123 606.005 121.343 607.348 120 609.005 120 610.662 120 612.005 121.343 612.005 123Z"/><path d="M621.005 123C621.005 124.657 619.662 126 618.005 126 616.348 126 615.005 124.657 615.005 123 615.005 121.343 616.348 120 618.005 120 619.662 120 621.005 121.343 621.005 123Z"/><path d="M630.005 123C630.005 124.657 628.662 126 627.005 126 625.348 126 624.005 124.657 624.005 123 624.005 121.343 625.348 120 627.005 120 628.662 120 630.005 121.343 630.005 123Z"/></g></svg>