<svg width="96" height="96" xmlns="http://www.w3.org/2000/svg" xmlns:xlink="http://www.w3.org/1999/xlink" xml:space="preserve" overflow="hidden"><defs><clipPath id="clip0"><rect x="577" y="427" width="96" height="96"/></clipPath></defs><g clip-path="url(#clip0)" transform="translate(-577 -427)"><path d="M617.953 463.028C617.953 465.789 615.714 468.028 612.953 468.028 610.192 468.028 607.953 465.789 607.953 463.028 607.953 460.267 610.192 458.028 612.953 458.028 615.714 458.028 617.953 460.267 617.953 463.028Z"/><path d="M617.98 475.024 621.039 488.364C621.266 489.289 622.087 489.946 623.039 489.964L623.339 489.964C624.431 489.778 625.166 488.742 624.98 487.65 624.969 487.587 624.956 487.525 624.939 487.464L621.651 472.922C621.555 472.484 621.307 472.095 620.951 471.822 619.765 470.871 618.407 470.158 616.951 469.722 615.661 469.287 614.312 469.051 612.951 469.022 611.585 468.994 610.226 469.232 608.951 469.722 607.512 470.199 606.161 470.908 604.951 471.822 604.595 472.095 604.347 472.484 604.251 472.922L601.051 487.415C600.762 488.484 601.394 489.585 602.463 489.874 602.525 489.891 602.588 489.904 602.651 489.915L602.951 489.915C603.903 489.897 604.724 489.24 604.951 488.315L607.939 475.068 607.949 475.068 607.949 482.118 604.949 497.01 607.949 497.01 607.949 512 611.949 512 611.949 497.009 613.949 497.009 613.949 512 617.949 512 617.949 497.009 620.949 497.009 617.949 482.117 617.949 475.017Z"/><path d="M641.98 475.024 645.039 488.364C645.266 489.289 646.087 489.946 647.039 489.964L647.339 489.964C648.432 489.777 649.166 488.74 648.979 487.648 648.969 487.586 648.955 487.525 648.939 487.464L645.639 472.921C645.543 472.483 645.295 472.094 644.939 471.821 643.753 470.87 642.395 470.157 640.939 469.721 639.649 469.286 638.3 469.05 636.939 469.021 635.573 468.993 634.214 469.23 632.939 469.721 631.5 470.198 630.149 470.907 628.939 471.821 628.583 472.094 628.335 472.483 628.239 472.921L625.063 487.415C624.774 488.485 625.408 489.586 626.477 489.874 626.539 489.891 626.601 489.904 626.663 489.915L626.963 489.915C627.915 489.897 628.736 489.24 628.963 488.315L631.943 475.091 631.95 475.091 631.95 512 635.95 512 635.95 491.013 637.95 491.013 637.95 512 641.95 512 641.95 475.021Z"/><path d="M641.942 463.028C641.942 465.789 639.703 468.028 636.942 468.028 634.181 468.028 631.942 465.789 631.942 463.028 631.942 460.267 634.181 458.028 636.942 458.028 639.703 458.028 641.942 460.267 641.942 463.028Z"/><path d="M664.006 521 586.006 521 586.006 448 664.006 448ZM592.006 515 658.006 515 658.006 454 592.006 454Z"/><path d="M606.006 442 615.539 429 625.073 442 606.006 442Z"/><path d="M644.072 429.046 634.572 442 625.073 429.046 644.072 429.046Z"/></g></svg>