<svg width="96" height="96" xmlns="http://www.w3.org/2000/svg" xmlns:xlink="http://www.w3.org/1999/xlink" xml:space="preserve" overflow="hidden"><defs><clipPath id="clip0"><rect x="402" y="102" width="96" height="96"/></clipPath></defs><g clip-path="url(#clip0)" transform="translate(-402 -102)"><path d="M410 168 410 122 490 122 490 168 410 168ZM458 180 442 180 442 174 458 174 458 180ZM496 174 496 116 404 116 404 174 436 174 436 180 418 180C416.9 180 416 180.9 416 182L416 184 484 184 484 182C484 180.9 483.1 180 482 180L464 180 464 174 496 174Z"/></g></svg>